<svg xmlns="http://www.w3.org/2000/svg" xmlns:xlink="http://www.w3.org/1999/xlink" width="1600" zoomAndPan="magnify" viewBox="0 0 1200 299.999988" height="400" preserveAspectRatio="xMidYMid meet" version="1.0"><defs><g/><clipPath id="166c42ffe4"><path d="M 57 70.589844 L 121 70.589844 L 121 146 L 57 146 Z M 57 70.589844 " clip-rule="nonzero"/></clipPath><clipPath id="a060fad603"><path d="M 59 154 L 124 154 L 124 229.589844 L 59 229.589844 Z M 59 154 " clip-rule="nonzero"/></clipPath><clipPath id="e6a62d9006"><path d="M 10.667969 119 L 86 119 L 86 184 L 10.667969 184 Z M 10.667969 119 " clip-rule="nonzero"/></clipPath><clipPath id="c37dec23a9"><path d="M 94 116 L 169.667969 116 L 169.667969 181 L 94 181 Z M 94 116 " clip-rule="nonzero"/></clipPath></defs><rect x="-120" width="1440" fill="#ffffff" y="-29.999999" height="359.999986" fill-opacity="1"/><rect x="-120" width="1440" fill="#ffffff" y="-29.999999" height="359.999986" fill-opacity="1"/><g clip-path="url(#166c42ffe4)"><path fill="#545454" d="M 96.054688 122.257812 C 98.375 127.078125 99.226562 131.808594 99.441406 135.53125 C 102.828125 132.144531 107.132812 127.019531 110.398438 120.363281 C 114.640625 111.699219 117.050781 100.4375 113.144531 87.101562 C 110.855469 103.367188 102.523438 110.140625 102.492188 110.171875 C 101.304688 111.148438 99.5625 111.058594 98.496094 109.898438 C 91.414062 102.238281 80.644531 101.351562 72.433594 102.054688 C 85.617188 107.121094 92.515625 114.839844 96.054688 122.257812 M 93.339844 141.695312 L 93.367188 141.605469 C 93.367188 141.574219 93.398438 141.515625 93.398438 141.484375 C 93.796875 139.378906 94.4375 132.328125 90.804688 124.757812 C 87.050781 116.886719 78.566406 108.523438 60.289062 104.558594 C 59.554688 104.40625 59.523438 104.40625 59.402344 104.375 C 57.816406 104.039062 56.808594 102.511719 57.113281 100.925781 C 57.328125 99.859375 58.121094 99.035156 59.066406 98.726562 C 59.160156 98.699219 84.824219 90.214844 100.539062 103.792969 C 103.5 100.164062 108.964844 91.007812 107.679688 73.796875 C 107.558594 72.179688 108.78125 70.804688 110.398438 70.683594 C 111.617188 70.589844 112.71875 71.261719 113.207031 72.300781 C 124.558594 93.050781 121.78125 110.386719 115.617188 122.929688 C 109.511719 135.378906 100.023438 143.039062 97.945312 144.625 C 96.664062 145.601562 94.832031 145.359375 93.855469 144.078125 C 93.339844 143.375 93.1875 142.519531 93.339844 141.695312 Z M 93.339844 141.695312 " fill-opacity="1" fill-rule="nonzero"/></g><path fill="#545454" d="M 94.375 80.507812 C 93.582031 79.714844 92.484375 79.226562 91.292969 79.226562 C 90.101562 79.226562 89.003906 79.714844 88.210938 80.507812 C 87.417969 81.304688 86.929688 82.402344 86.929688 83.589844 C 86.929688 84.78125 87.417969 85.878906 88.210938 86.675781 C 89.003906 87.46875 90.101562 87.957031 91.292969 87.957031 C 92.484375 87.957031 93.582031 87.46875 94.375 86.675781 C 95.167969 85.878906 95.65625 84.78125 95.65625 83.589844 C 95.65625 82.371094 95.167969 81.304688 94.375 80.507812 M 91.292969 73.367188 C 94.101562 73.367188 96.664062 74.496094 98.527344 76.359375 C 100.386719 78.21875 101.515625 80.753906 101.515625 83.589844 C 101.515625 86.398438 100.386719 88.960938 98.527344 90.824219 C 96.664062 92.6875 94.132812 93.816406 91.292969 93.816406 C 88.484375 93.816406 85.921875 92.6875 84.0625 90.824219 C 82.199219 88.960938 81.070312 86.429688 81.070312 83.589844 C 81.070312 80.785156 82.199219 78.21875 84.0625 76.359375 C 85.921875 74.527344 88.484375 73.367188 91.292969 73.367188 Z M 91.292969 73.367188 " fill-opacity="1" fill-rule="nonzero"/><g clip-path="url(#a060fad603)"><path fill="#545454" d="M 84.0625 177.738281 C 81.742188 172.917969 80.886719 168.1875 80.671875 164.460938 C 77.285156 167.851562 72.984375 172.976562 69.71875 179.628906 C 65.476562 188.296875 63.066406 199.558594 66.972656 212.894531 C 69.261719 196.628906 77.589844 189.851562 77.621094 189.824219 C 78.8125 188.847656 80.550781 188.9375 81.621094 190.097656 C 88.699219 197.757812 99.472656 198.640625 107.679688 197.941406 C 94.527344 192.875 87.632812 185.125 84.0625 177.738281 M 86.808594 158.296875 L 86.777344 158.390625 C 86.777344 158.421875 86.746094 158.480469 86.746094 158.511719 C 86.351562 160.617188 85.707031 167.667969 89.339844 175.234375 C 93.125 183.109375 101.578125 191.46875 119.886719 195.4375 C 120.621094 195.589844 120.652344 195.589844 120.773438 195.621094 C 122.359375 195.957031 123.367188 197.484375 123.0625 199.070312 C 122.847656 200.136719 122.054688 200.960938 121.109375 201.265625 C 121.015625 201.296875 95.351562 209.78125 79.636719 196.199219 C 76.675781 199.832031 71.214844 208.988281 72.496094 226.199219 C 72.617188 227.816406 71.394531 229.191406 69.777344 229.3125 C 68.558594 229.402344 67.460938 228.730469 66.972656 227.695312 C 55.617188 206.941406 58.394531 189.609375 64.558594 177.066406 C 70.664062 164.617188 80.15625 156.957031 82.230469 155.367188 C 83.511719 154.390625 85.34375 154.636719 86.320312 155.917969 C 86.808594 156.621094 86.960938 157.472656 86.808594 158.296875 Z M 86.808594 158.296875 " fill-opacity="1" fill-rule="nonzero"/></g><path fill="#545454" d="M 85.769531 219.484375 C 86.5625 220.277344 87.660156 220.765625 88.851562 220.765625 C 90.042969 220.765625 91.140625 220.277344 91.933594 219.484375 C 92.726562 218.691406 93.214844 217.59375 93.214844 216.402344 C 93.214844 215.214844 92.726562 214.113281 91.933594 213.320312 C 91.140625 212.527344 90.042969 212.039062 88.851562 212.039062 C 87.660156 212.039062 86.5625 212.527344 85.769531 213.320312 C 84.976562 214.113281 84.488281 215.214844 84.488281 216.402344 C 84.488281 217.625 84.976562 218.691406 85.769531 219.484375 M 88.851562 226.625 C 86.042969 226.625 83.480469 225.496094 81.621094 223.636719 C 79.757812 221.773438 78.628906 219.242188 78.628906 216.402344 C 78.628906 213.597656 79.757812 211.03125 81.621094 209.171875 C 83.480469 207.308594 86.015625 206.179688 88.851562 206.179688 C 91.660156 206.179688 94.222656 207.308594 96.085938 209.171875 C 97.945312 211.03125 99.074219 213.566406 99.074219 216.402344 C 99.074219 219.210938 97.945312 221.773438 96.085938 223.636719 C 94.222656 225.46875 91.660156 226.625 88.851562 226.625 Z M 88.851562 226.625 " fill-opacity="1" fill-rule="nonzero"/><g clip-path="url(#e6a62d9006)"><path fill="#737373" d="M 62.332031 144.015625 C 67.15625 141.695312 71.882812 140.84375 75.609375 140.628906 C 72.21875 137.242188 67.09375 132.9375 60.441406 129.671875 C 51.773438 125.429688 40.511719 123.019531 27.175781 126.925781 C 43.441406 129.214844 50.21875 137.546875 50.246094 137.578125 C 51.222656 138.765625 51.132812 140.507812 49.972656 141.574219 C 42.3125 148.65625 41.429688 159.425781 42.128906 167.636719 C 47.195312 154.453125 54.917969 147.554688 62.332031 144.015625 M 81.773438 146.730469 L 81.679688 146.703125 C 81.648438 146.703125 81.589844 146.671875 81.558594 146.671875 C 79.453125 146.273438 72.402344 145.632812 64.835938 149.265625 C 56.960938 153.050781 48.601562 161.503906 44.632812 179.8125 C 44.480469 180.546875 44.480469 180.574219 44.449219 180.699219 C 44.113281 182.285156 42.585938 183.292969 41 182.988281 C 39.933594 182.773438 39.109375 181.980469 38.804688 181.035156 C 38.773438 180.941406 30.289062 155.277344 43.871094 139.5625 C 40.238281 136.601562 31.082031 131.136719 13.871094 132.417969 C 12.253906 132.542969 10.851562 131.320312 10.757812 129.703125 C 10.667969 128.484375 11.339844 127.382812 12.375 126.894531 C 33.128906 115.542969 50.460938 118.320312 63.003906 124.484375 C 75.457031 130.589844 83.113281 140.078125 84.703125 142.15625 C 85.679688 143.4375 85.433594 145.265625 84.152344 146.242188 C 83.449219 146.730469 82.597656 146.886719 81.773438 146.730469 Z M 81.773438 146.730469 " fill-opacity="1" fill-rule="nonzero"/></g><path fill="#737373" d="M 20.585938 145.695312 C 19.792969 146.488281 19.304688 147.585938 19.304688 148.777344 C 19.304688 149.96875 19.792969 151.066406 20.585938 151.859375 C 21.378906 152.652344 22.476562 153.140625 23.667969 153.140625 C 24.855469 153.140625 25.957031 152.652344 26.75 151.859375 C 27.542969 151.066406 28.03125 149.96875 28.03125 148.777344 C 28.03125 147.585938 27.542969 146.488281 26.75 145.695312 C 25.957031 144.902344 24.855469 144.414062 23.667969 144.414062 C 22.445312 144.414062 21.378906 144.902344 20.585938 145.695312 M 13.445312 148.777344 C 13.445312 145.96875 14.574219 143.40625 16.433594 141.542969 C 18.296875 139.683594 20.828125 138.554688 23.667969 138.554688 C 26.476562 138.554688 29.039062 139.683594 30.898438 141.542969 C 32.761719 143.40625 33.890625 145.9375 33.890625 148.777344 C 33.890625 151.585938 32.761719 154.148438 30.898438 156.007812 C 29.039062 157.871094 26.503906 159 23.667969 159 C 20.859375 159 18.296875 157.871094 16.433594 156.007812 C 14.601562 154.148438 13.445312 151.585938 13.445312 148.777344 Z M 13.445312 148.777344 " fill-opacity="1" fill-rule="nonzero"/><g clip-path="url(#c37dec23a9)"><path fill="#737373" d="M 117.8125 155.980469 C 112.992188 158.296875 108.261719 159.152344 104.539062 159.367188 C 107.925781 162.753906 113.050781 167.058594 119.707031 170.320312 C 128.371094 174.5625 139.632812 176.976562 152.96875 173.070312 C 136.703125 170.78125 129.929688 162.449219 129.898438 162.417969 C 128.921875 161.226562 129.011719 159.488281 130.171875 158.421875 C 137.832031 151.339844 138.71875 140.566406 138.015625 132.359375 C 132.949219 145.542969 125.199219 152.4375 117.8125 155.980469 M 98.375 153.261719 L 98.464844 153.292969 C 98.496094 153.292969 98.558594 153.324219 98.585938 153.324219 C 100.691406 153.71875 107.742188 154.363281 115.3125 150.730469 C 123.183594 146.945312 131.546875 138.492188 135.511719 120.183594 C 135.664062 119.449219 135.664062 119.417969 135.695312 119.296875 C 136.03125 117.710938 137.558594 116.703125 139.144531 117.007812 C 140.214844 117.222656 141.035156 118.015625 141.34375 118.960938 C 141.371094 119.054688 149.855469 144.71875 136.277344 160.433594 C 139.90625 163.394531 149.0625 168.855469 166.273438 167.574219 C 167.890625 167.453125 169.296875 168.675781 169.386719 170.292969 C 169.480469 171.511719 168.808594 172.609375 167.769531 173.097656 C 147.019531 184.453125 129.683594 181.675781 117.140625 175.511719 C 104.691406 169.40625 97.03125 159.914062 95.445312 157.839844 C 94.46875 156.558594 94.710938 154.726562 95.992188 153.75 C 96.695312 153.261719 97.550781 153.109375 98.375 153.261719 Z M 98.375 153.261719 " fill-opacity="1" fill-rule="nonzero"/></g><path fill="#737373" d="M 159.5625 154.300781 C 160.355469 153.507812 160.84375 152.410156 160.84375 151.21875 C 160.84375 150.027344 160.355469 148.929688 159.5625 148.136719 C 158.765625 147.34375 157.667969 146.855469 156.480469 146.855469 C 155.289062 146.855469 154.191406 147.34375 153.398438 148.136719 C 152.601562 148.929688 152.113281 150.027344 152.113281 151.21875 C 152.113281 152.410156 152.601562 153.507812 153.398438 154.300781 C 154.191406 155.09375 155.289062 155.582031 156.480469 155.582031 C 157.699219 155.582031 158.765625 155.09375 159.5625 154.300781 M 166.703125 151.21875 C 166.703125 154.027344 165.574219 156.589844 163.710938 158.449219 C 161.851562 160.3125 159.316406 161.441406 156.480469 161.441406 C 153.671875 161.441406 151.109375 160.3125 149.246094 158.449219 C 147.382812 156.589844 146.253906 154.054688 146.253906 151.21875 C 146.253906 148.410156 147.382812 145.847656 149.246094 143.984375 C 151.109375 142.125 153.640625 140.996094 156.480469 140.996094 C 159.285156 140.996094 161.851562 142.125 163.710938 143.984375 C 165.542969 145.847656 166.703125 148.410156 166.703125 151.21875 Z M 166.703125 151.21875 " fill-opacity="1" fill-rule="nonzero"/><g fill="#333333" fill-opacity="1"><g transform="translate(191.095657, 175.499986)"><g><path d="M 2.4375 -26.0625 C 2.4375 -31.195312 3.546875 -35.773438 5.765625 -39.796875 C 7.992188 -43.816406 11.09375 -46.953125 15.0625 -49.203125 C 19.039062 -51.453125 23.546875 -52.578125 28.578125 -52.578125 C 34.753906 -52.578125 40.035156 -50.945312 44.421875 -47.6875 C 48.816406 -44.425781 51.753906 -39.984375 53.234375 -34.359375 L 39.3125 -34.359375 C 38.28125 -36.523438 36.8125 -38.175781 34.90625 -39.3125 C 33.007812 -40.445312 30.851562 -41.015625 28.4375 -41.015625 C 24.53125 -41.015625 21.367188 -39.65625 18.953125 -36.9375 C 16.535156 -34.226562 15.328125 -30.601562 15.328125 -26.0625 C 15.328125 -21.519531 16.535156 -17.890625 18.953125 -15.171875 C 21.367188 -12.460938 24.53125 -11.109375 28.4375 -11.109375 C 30.851562 -11.109375 33.007812 -11.675781 34.90625 -12.8125 C 36.8125 -13.945312 38.28125 -15.597656 39.3125 -17.765625 L 53.234375 -17.765625 C 51.753906 -12.140625 48.816406 -7.707031 44.421875 -4.46875 C 40.035156 -1.238281 34.753906 0.375 28.578125 0.375 C 23.546875 0.375 19.039062 -0.75 15.0625 -3 C 11.09375 -5.25 7.992188 -8.367188 5.765625 -12.359375 C 3.546875 -16.359375 2.4375 -20.925781 2.4375 -26.0625 Z M 2.4375 -26.0625 "/></g></g></g><g fill="#333333" fill-opacity="1"><g transform="translate(256.842531, 175.499986)"><g><path d="M 36.953125 -9.1875 L 17.546875 -9.1875 L 14.4375 0 L 1.1875 0 L 20 -51.984375 L 34.65625 -51.984375 L 53.46875 0 L 40.0625 0 Z M 33.6875 -18.953125 L 27.25 -37.984375 L 20.875 -18.953125 Z M 33.6875 -18.953125 "/></g></g></g><g fill="#333333" fill-opacity="1"><g transform="translate(320.738438, 175.499986)"><g><path d="M 51.09375 0 L 38.4375 0 L 17.25 -32.0625 L 17.25 0 L 4.59375 0 L 4.59375 -51.984375 L 17.25 -51.984375 L 38.4375 -19.765625 L 38.4375 -51.984375 L 51.09375 -51.984375 Z M 51.09375 0 "/></g></g></g><g fill="#333333" fill-opacity="1"><g transform="translate(385.744925, 175.499986)"><g><path d="M 49.609375 -51.984375 L 49.609375 0 L 36.953125 0 L 36.953125 -21.40625 L 17.25 -21.40625 L 17.25 0 L 4.59375 0 L 4.59375 -51.984375 L 17.25 -51.984375 L 17.25 -31.625 L 36.953125 -31.625 L 36.953125 -51.984375 Z M 49.609375 -51.984375 "/></g></g></g><g fill="#333333" fill-opacity="1"><g transform="translate(449.196595, 175.499986)"><g><path d="M 36.953125 -9.1875 L 17.546875 -9.1875 L 14.4375 0 L 1.1875 0 L 20 -51.984375 L 34.65625 -51.984375 L 53.46875 0 L 40.0625 0 Z M 33.6875 -18.953125 L 27.25 -37.984375 L 20.875 -18.953125 Z M 33.6875 -18.953125 "/></g></g></g><g fill="#333333" fill-opacity="1"><g transform="translate(513.092503, 175.499986)"><g><path d="M 53.390625 -51.984375 L 34.953125 0 L 19.109375 0 L 0.671875 -51.984375 L 14.140625 -51.984375 L 27.03125 -12.734375 L 39.984375 -51.984375 Z M 53.390625 -51.984375 "/></g></g></g><g fill="#333333" fill-opacity="1"><g transform="translate(576.470107, 175.499986)"><g/></g></g><g fill="#737373" fill-opacity="1"><g transform="translate(601.497967, 175.499986)"><g><path d="M 39.09375 -35.546875 C 38.15625 -37.273438 36.8125 -38.59375 35.0625 -39.5 C 33.3125 -40.414062 31.25 -40.875 28.875 -40.875 C 24.78125 -40.875 21.5 -39.523438 19.03125 -36.828125 C 16.5625 -34.140625 15.328125 -30.550781 15.328125 -26.0625 C 15.328125 -21.269531 16.625 -17.53125 19.21875 -14.84375 C 21.8125 -12.15625 25.378906 -10.8125 29.921875 -10.8125 C 33.023438 -10.8125 35.648438 -11.597656 37.796875 -13.171875 C 39.941406 -14.753906 41.507812 -17.03125 42.5 -20 L 26.4375 -20 L 26.4375 -29.328125 L 53.984375 -29.328125 L 53.984375 -17.546875 C 53.046875 -14.390625 51.453125 -11.453125 49.203125 -8.734375 C 46.953125 -6.023438 44.097656 -3.828125 40.640625 -2.140625 C 37.191406 -0.460938 33.296875 0.375 28.953125 0.375 C 23.816406 0.375 19.238281 -0.75 15.21875 -3 C 11.195312 -5.25 8.0625 -8.367188 5.8125 -12.359375 C 3.5625 -16.359375 2.4375 -20.925781 2.4375 -26.0625 C 2.4375 -31.195312 3.5625 -35.773438 5.8125 -39.796875 C 8.0625 -43.816406 11.179688 -46.953125 15.171875 -49.203125 C 19.171875 -51.453125 23.738281 -52.578125 28.875 -52.578125 C 35.09375 -52.578125 40.335938 -51.070312 44.609375 -48.0625 C 48.878906 -45.050781 51.707031 -40.878906 53.09375 -35.546875 Z M 39.09375 -35.546875 "/></g></g></g><g fill="#737373" fill-opacity="1"><g transform="translate(667.244841, 175.499986)"><g><path d="M 31.09375 0 L 20.28125 -19.625 L 17.25 -19.625 L 17.25 0 L 4.59375 0 L 4.59375 -51.984375 L 25.84375 -51.984375 C 29.9375 -51.984375 33.425781 -51.265625 36.3125 -49.828125 C 39.207031 -48.398438 41.367188 -46.4375 42.796875 -43.9375 C 44.234375 -41.445312 44.953125 -38.671875 44.953125 -35.609375 C 44.953125 -32.160156 43.972656 -29.078125 42.015625 -26.359375 C 40.066406 -23.640625 37.191406 -21.710938 33.390625 -20.578125 L 45.390625 0 Z M 17.25 -28.578125 L 25.109375 -28.578125 C 27.421875 -28.578125 29.15625 -29.144531 30.3125 -30.28125 C 31.476562 -31.414062 32.0625 -33.019531 32.0625 -35.09375 C 32.0625 -37.070312 31.476562 -38.628906 30.3125 -39.765625 C 29.15625 -40.898438 27.421875 -41.46875 25.109375 -41.46875 L 17.25 -41.46875 Z M 17.25 -28.578125 "/></g></g></g><g fill="#737373" fill-opacity="1"><g transform="translate(724.847437, 175.499986)"><g><path d="M 29.171875 0.515625 C 24.285156 0.515625 19.804688 -0.617188 15.734375 -2.890625 C 11.660156 -5.160156 8.425781 -8.332031 6.03125 -12.40625 C 3.632812 -16.476562 2.4375 -21.054688 2.4375 -26.140625 C 2.4375 -31.222656 3.632812 -35.785156 6.03125 -39.828125 C 8.425781 -43.878906 11.660156 -47.039062 15.734375 -49.3125 C 19.804688 -51.582031 24.285156 -52.71875 29.171875 -52.71875 C 34.054688 -52.71875 38.535156 -51.582031 42.609375 -49.3125 C 46.679688 -47.039062 49.890625 -43.878906 52.234375 -39.828125 C 54.578125 -35.785156 55.75 -31.222656 55.75 -26.140625 C 55.75 -21.054688 54.566406 -16.476562 52.203125 -12.40625 C 49.835938 -8.332031 46.628906 -5.160156 42.578125 -2.890625 C 38.523438 -0.617188 34.054688 0.515625 29.171875 0.515625 Z M 29.171875 -11.03125 C 33.316406 -11.03125 36.632812 -12.410156 39.125 -15.171875 C 41.625 -17.941406 42.875 -21.597656 42.875 -26.140625 C 42.875 -30.734375 41.625 -34.398438 39.125 -37.140625 C 36.632812 -39.878906 33.316406 -41.25 29.171875 -41.25 C 24.972656 -41.25 21.628906 -39.890625 19.140625 -37.171875 C 16.648438 -34.453125 15.40625 -30.773438 15.40625 -26.140625 C 15.40625 -21.546875 16.648438 -17.878906 19.140625 -15.140625 C 21.628906 -12.398438 24.972656 -11.03125 29.171875 -11.03125 Z M 29.171875 -11.03125 "/></g></g></g><g fill="#737373" fill-opacity="1"><g transform="translate(792.371247, 175.499986)"><g><path d="M 17.03125 -51.984375 L 17.03125 -20.875 C 17.03125 -17.769531 17.796875 -15.378906 19.328125 -13.703125 C 20.859375 -12.023438 23.101562 -11.1875 26.0625 -11.1875 C 29.019531 -11.1875 31.289062 -12.023438 32.875 -13.703125 C 34.457031 -15.378906 35.25 -17.769531 35.25 -20.875 L 35.25 -51.984375 L 47.90625 -51.984375 L 47.90625 -20.953125 C 47.90625 -16.316406 46.914062 -12.394531 44.9375 -9.1875 C 42.96875 -5.976562 40.316406 -3.554688 36.984375 -1.921875 C 33.648438 -0.296875 29.9375 0.515625 25.84375 0.515625 C 21.75 0.515625 18.082031 -0.285156 14.84375 -1.890625 C 11.613281 -3.492188 9.0625 -5.910156 7.1875 -9.140625 C 5.3125 -12.378906 4.375 -16.316406 4.375 -20.953125 L 4.375 -51.984375 Z M 17.03125 -51.984375 "/></g></g></g><g fill="#737373" fill-opacity="1"><g transform="translate(853.897895, 175.499986)"><g><path d="M 44.203125 -35.25 C 44.203125 -32.238281 43.507812 -29.484375 42.125 -26.984375 C 40.75 -24.492188 38.628906 -22.484375 35.765625 -20.953125 C 32.898438 -19.421875 29.347656 -18.65625 25.109375 -18.65625 L 17.25 -18.65625 L 17.25 0 L 4.59375 0 L 4.59375 -51.984375 L 25.109375 -51.984375 C 29.253906 -51.984375 32.753906 -51.265625 35.609375 -49.828125 C 38.472656 -48.398438 40.617188 -46.425781 42.046875 -43.90625 C 43.484375 -41.394531 44.203125 -38.507812 44.203125 -35.25 Z M 24.140625 -28.734375 C 26.554688 -28.734375 28.359375 -29.300781 29.546875 -30.4375 C 30.734375 -31.570312 31.328125 -33.175781 31.328125 -35.25 C 31.328125 -37.320312 30.734375 -38.925781 29.546875 -40.0625 C 28.359375 -41.195312 26.554688 -41.765625 24.140625 -41.765625 L 17.25 -41.765625 L 17.25 -28.734375 Z M 24.140625 -28.734375 "/></g></g></g><g fill="#737373" fill-opacity="1"><g transform="translate(909.427417, 175.499986)"><g/></g></g><g fill="#737373" fill-opacity="1"><g transform="translate(934.452851, 175.499986)"><g><path d="M 44.203125 -35.25 C 44.203125 -32.238281 43.507812 -29.484375 42.125 -26.984375 C 40.75 -24.492188 38.628906 -22.484375 35.765625 -20.953125 C 32.898438 -19.421875 29.347656 -18.65625 25.109375 -18.65625 L 17.25 -18.65625 L 17.25 0 L 4.59375 0 L 4.59375 -51.984375 L 25.109375 -51.984375 C 29.253906 -51.984375 32.753906 -51.265625 35.609375 -49.828125 C 38.472656 -48.398438 40.617188 -46.425781 42.046875 -43.90625 C 43.484375 -41.394531 44.203125 -38.507812 44.203125 -35.25 Z M 24.140625 -28.734375 C 26.554688 -28.734375 28.359375 -29.300781 29.546875 -30.4375 C 30.734375 -31.570312 31.328125 -33.175781 31.328125 -35.25 C 31.328125 -37.320312 30.734375 -38.925781 29.546875 -40.0625 C 28.359375 -41.195312 26.554688 -41.765625 24.140625 -41.765625 L 17.25 -41.765625 L 17.25 -28.734375 Z M 24.140625 -28.734375 "/></g></g></g><g fill="#737373" fill-opacity="1"><g transform="translate(989.982373, 175.499986)"><g><path d="M 29.171875 0.515625 C 24.285156 0.515625 19.804688 -0.617188 15.734375 -2.890625 C 11.660156 -5.160156 8.425781 -8.332031 6.03125 -12.40625 C 3.632812 -16.476562 2.4375 -21.054688 2.4375 -26.140625 C 2.4375 -31.222656 3.632812 -35.785156 6.03125 -39.828125 C 8.425781 -43.878906 11.660156 -47.039062 15.734375 -49.3125 C 19.804688 -51.582031 24.285156 -52.71875 29.171875 -52.71875 C 34.054688 -52.71875 38.535156 -51.582031 42.609375 -49.3125 C 46.679688 -47.039062 49.890625 -43.878906 52.234375 -39.828125 C 54.578125 -35.785156 55.75 -31.222656 55.75 -26.140625 C 55.75 -21.054688 54.566406 -16.476562 52.203125 -12.40625 C 49.835938 -8.332031 46.628906 -5.160156 42.578125 -2.890625 C 38.523438 -0.617188 34.054688 0.515625 29.171875 0.515625 Z M 29.171875 -11.03125 C 33.316406 -11.03125 36.632812 -12.410156 39.125 -15.171875 C 41.625 -17.941406 42.875 -21.597656 42.875 -26.140625 C 42.875 -30.734375 41.625 -34.398438 39.125 -37.140625 C 36.632812 -39.878906 33.316406 -41.25 29.171875 -41.25 C 24.972656 -41.25 21.628906 -39.890625 19.140625 -37.171875 C 16.648438 -34.453125 15.40625 -30.773438 15.40625 -26.140625 C 15.40625 -21.546875 16.648438 -17.878906 19.140625 -15.140625 C 21.628906 -12.398438 24.972656 -11.03125 29.171875 -11.03125 Z M 29.171875 -11.03125 "/></g></g></g><g fill="#737373" fill-opacity="1"><g transform="translate(1057.506171, 175.499986)"><g><path d="M 29.171875 0.515625 C 24.285156 0.515625 19.804688 -0.617188 15.734375 -2.890625 C 11.660156 -5.160156 8.425781 -8.332031 6.03125 -12.40625 C 3.632812 -16.476562 2.4375 -21.054688 2.4375 -26.140625 C 2.4375 -31.222656 3.632812 -35.785156 6.03125 -39.828125 C 8.425781 -43.878906 11.660156 -47.039062 15.734375 -49.3125 C 19.804688 -51.582031 24.285156 -52.71875 29.171875 -52.71875 C 34.054688 -52.71875 38.535156 -51.582031 42.609375 -49.3125 C 46.679688 -47.039062 49.890625 -43.878906 52.234375 -39.828125 C 54.578125 -35.785156 55.75 -31.222656 55.75 -26.140625 C 55.75 -21.054688 54.566406 -16.476562 52.203125 -12.40625 C 49.835938 -8.332031 46.628906 -5.160156 42.578125 -2.890625 C 38.523438 -0.617188 34.054688 0.515625 29.171875 0.515625 Z M 29.171875 -11.03125 C 33.316406 -11.03125 36.632812 -12.410156 39.125 -15.171875 C 41.625 -17.941406 42.875 -21.597656 42.875 -26.140625 C 42.875 -30.734375 41.625 -34.398438 39.125 -37.140625 C 36.632812 -39.878906 33.316406 -41.25 29.171875 -41.25 C 24.972656 -41.25 21.628906 -39.890625 19.140625 -37.171875 C 16.648438 -34.453125 15.40625 -30.773438 15.40625 -26.140625 C 15.40625 -21.546875 16.648438 -17.878906 19.140625 -15.140625 C 21.628906 -12.398438 24.972656 -11.03125 29.171875 -11.03125 Z M 29.171875 -11.03125 "/></g></g></g><g fill="#737373" fill-opacity="1"><g transform="translate(1125.029969, 175.499986)"><g><path d="M 17.25 -9.78125 L 33.84375 -9.78125 L 33.84375 0 L 4.59375 0 L 4.59375 -51.984375 L 17.25 -51.984375 Z M 17.25 -9.78125 "/></g></g></g><g fill="#333333" fill-opacity="1"><g transform="translate(1169.681518, 175.499986)"><g/></g></g></svg>