<svg xmlns="http://www.w3.org/2000/svg" xmlns:xlink="http://www.w3.org/1999/xlink" width="500" zoomAndPan="magnify" viewBox="0 0 375 374.999991" height="500" preserveAspectRatio="xMidYMid meet" version="1.0"><defs><g/><clipPath id="bbeeb2b6be"><rect x="0" width="265" y="0" height="288"/></clipPath><clipPath id="fcb7fd4cc3"><path d="M 265.402344 200.132812 L 335 200.132812 L 335 269 L 265.402344 269 Z M 265.402344 200.132812 " clip-rule="nonzero"/></clipPath><clipPath id="21bf8f13c1"><path d="M 299 200.132812 L 368.902344 200.132812 L 368.902344 269 L 299 269 Z M 299 200.132812 " clip-rule="nonzero"/></clipPath></defs><g transform="matrix(1, 0, 0, 1, 6, 56)"><g clip-path="url(#bbeeb2b6be)"><g fill="#004aad" fill-opacity="1"><g transform="translate(0.410248, 206.722561)"><g><path d="M 76.34375 -87.796875 C 68.695312 -87.796875 62.125 -84.96875 56.625 -79.3125 C 51.125 -73.664062 48.375 -66.867188 48.375 -58.921875 C 48.375 -50.816406 51.125 -43.9375 56.625 -38.28125 C 62.125 -32.625 68.695312 -29.796875 76.34375 -29.796875 C 80.007812 -29.796875 83.484375 -30.253906 86.765625 -31.171875 C 90.054688 -32.085938 92.46875 -33.003906 94 -33.921875 L 96.0625 -35.296875 L 109.8125 -7.109375 C 108.738281 -6.335938 107.242188 -5.378906 105.328125 -4.234375 C 103.421875 -3.085938 99.066406 -1.523438 92.265625 0.453125 C 85.472656 2.441406 78.175781 3.4375 70.375 3.4375 C 53.101562 3.4375 37.929688 -2.632812 24.859375 -14.78125 C 11.796875 -26.9375 5.265625 -41.492188 5.265625 -58.453125 C 5.265625 -75.578125 11.796875 -90.289062 24.859375 -102.59375 C 37.929688 -114.894531 53.101562 -121.046875 70.375 -121.046875 C 78.175781 -121.046875 85.359375 -120.128906 91.921875 -118.296875 C 98.492188 -116.460938 103.15625 -114.628906 105.90625 -112.796875 L 109.8125 -110.046875 L 96.0625 -82.296875 C 91.007812 -85.960938 84.4375 -87.796875 76.34375 -87.796875 Z M 76.34375 -87.796875 "/></g></g></g><g fill="#004aad" fill-opacity="1"><g transform="translate(112.971642, 206.722561)"><g><path d="M 13.75 0 L 13.75 -197.15625 L 54.328125 -197.15625 L 54.328125 -105.21875 L 54.796875 -105.21875 C 65.335938 -115.769531 76.566406 -121.046875 88.484375 -121.046875 C 94.296875 -121.046875 100.066406 -120.28125 105.796875 -118.75 C 111.523438 -117.21875 117.023438 -114.847656 122.296875 -111.640625 C 127.578125 -108.429688 131.859375 -103.882812 135.140625 -98 C 138.429688 -92.113281 140.078125 -85.273438 140.078125 -77.484375 L 140.078125 0 L 99.5 0 L 99.5 -66.484375 C 99.5 -72.597656 97.546875 -77.945312 93.640625 -82.53125 C 89.742188 -87.113281 84.664062 -89.40625 78.40625 -89.40625 C 72.289062 -89.40625 66.75 -87.035156 61.78125 -82.296875 C 56.8125 -77.554688 54.328125 -72.285156 54.328125 -66.484375 L 54.328125 0 Z M 13.75 0 "/></g></g></g></g></g><g clip-path="url(#fcb7fd4cc3)"><path fill="#004aad" d="M 334.179688 234.503906 C 334.179688 235.628906 334.125 236.75 334.015625 237.871094 C 333.90625 238.992188 333.742188 240.105469 333.519531 241.207031 C 333.300781 242.3125 333.027344 243.402344 332.703125 244.480469 C 332.375 245.558594 331.996094 246.617188 331.566406 247.65625 C 331.132812 248.695312 330.652344 249.710938 330.121094 250.707031 C 329.59375 251.699219 329.015625 252.664062 328.390625 253.597656 C 327.761719 254.535156 327.09375 255.4375 326.378906 256.308594 C 325.664062 257.179688 324.910156 258.011719 324.113281 258.808594 C 323.320312 259.601562 322.484375 260.359375 321.613281 261.070312 C 320.746094 261.785156 319.84375 262.457031 318.90625 263.082031 C 317.96875 263.707031 317.003906 264.285156 316.011719 264.816406 C 315.019531 265.347656 314.003906 265.828125 312.964844 266.257812 C 311.921875 266.6875 310.863281 267.066406 309.789062 267.394531 C 308.710938 267.722656 307.621094 267.992188 306.515625 268.214844 C 305.410156 268.433594 304.300781 268.597656 303.179688 268.707031 C 302.058594 268.820312 300.9375 268.875 299.808594 268.875 C 298.683594 268.875 297.5625 268.820312 296.441406 268.707031 C 295.320312 268.597656 294.210938 268.433594 293.105469 268.214844 C 292 267.992188 290.910156 267.722656 289.832031 267.394531 C 288.753906 267.066406 287.695312 266.6875 286.65625 266.257812 C 285.617188 265.828125 284.601562 265.347656 283.609375 264.816406 C 282.617188 264.285156 281.652344 263.707031 280.714844 263.082031 C 279.777344 262.457031 278.875 261.785156 278.003906 261.070312 C 277.136719 260.359375 276.300781 259.601562 275.507812 258.808594 C 274.710938 258.011719 273.957031 257.179688 273.242188 256.308594 C 272.527344 255.4375 271.855469 254.535156 271.230469 253.597656 C 270.605469 252.664062 270.027344 251.699219 269.496094 250.707031 C 268.96875 249.710938 268.488281 248.695312 268.054688 247.65625 C 267.625 246.617188 267.246094 245.558594 266.917969 244.480469 C 266.59375 243.402344 266.320312 242.3125 266.101562 241.207031 C 265.878906 240.105469 265.714844 238.992188 265.605469 237.871094 C 265.496094 236.75 265.4375 235.628906 265.4375 234.503906 C 265.4375 233.378906 265.496094 232.253906 265.605469 231.132812 C 265.714844 230.015625 265.878906 228.902344 266.101562 227.796875 C 266.320312 226.695312 266.59375 225.601562 266.917969 224.527344 C 267.246094 223.449219 267.625 222.390625 268.054688 221.351562 C 268.488281 220.308594 268.96875 219.292969 269.496094 218.300781 C 270.027344 217.308594 270.605469 216.34375 271.230469 215.40625 C 271.855469 214.472656 272.527344 213.570312 273.242188 212.699219 C 273.957031 211.828125 274.710938 210.996094 275.507812 210.199219 C 276.300781 209.402344 277.136719 208.648438 278.003906 207.933594 C 278.875 207.21875 279.777344 206.550781 280.714844 205.925781 C 281.652344 205.300781 282.617188 204.722656 283.609375 204.191406 C 284.601562 203.660156 285.617188 203.179688 286.65625 202.75 C 287.695312 202.316406 288.753906 201.9375 289.832031 201.613281 C 290.910156 201.285156 292 201.011719 293.105469 200.792969 C 294.210938 200.574219 295.320312 200.40625 296.441406 200.296875 C 297.5625 200.1875 298.683594 200.132812 299.808594 200.132812 C 300.9375 200.132812 302.058594 200.1875 303.179688 200.296875 C 304.300781 200.40625 305.410156 200.574219 306.515625 200.792969 C 307.621094 201.011719 308.710938 201.285156 309.789062 201.613281 C 310.863281 201.9375 311.921875 202.316406 312.964844 202.75 C 314.003906 203.179688 315.019531 203.660156 316.011719 204.191406 C 317.003906 204.722656 317.96875 205.300781 318.90625 205.925781 C 319.84375 206.550781 320.746094 207.21875 321.613281 207.933594 C 322.484375 208.648438 323.320312 209.402344 324.113281 210.199219 C 324.910156 210.996094 325.664062 211.828125 326.378906 212.699219 C 327.09375 213.570312 327.761719 214.472656 328.390625 215.40625 C 329.015625 216.34375 329.59375 217.308594 330.121094 218.300781 C 330.652344 219.292969 331.132812 220.308594 331.566406 221.351562 C 331.996094 222.390625 332.375 223.449219 332.703125 224.527344 C 333.027344 225.601562 333.300781 226.695312 333.519531 227.796875 C 333.742188 228.902344 333.90625 230.015625 334.015625 231.132812 C 334.125 232.253906 334.179688 233.378906 334.179688 234.503906 Z M 334.179688 234.503906 " fill-opacity="1" fill-rule="nonzero"/></g><g clip-path="url(#21bf8f13c1)"><path fill="#004aad" d="M 368.550781 234.503906 C 368.550781 235.628906 368.496094 236.75 368.386719 237.871094 C 368.277344 238.992188 368.113281 240.105469 367.890625 241.207031 C 367.671875 242.3125 367.398438 243.402344 367.074219 244.480469 C 366.746094 245.558594 366.367188 246.617188 365.9375 247.65625 C 365.503906 248.695312 365.023438 249.710938 364.492188 250.707031 C 363.964844 251.699219 363.386719 252.664062 362.761719 253.597656 C 362.132812 254.535156 361.464844 255.4375 360.75 256.308594 C 360.035156 257.179688 359.28125 258.011719 358.484375 258.808594 C 357.691406 259.601562 356.855469 260.359375 355.984375 261.070312 C 355.117188 261.785156 354.214844 262.457031 353.277344 263.082031 C 352.339844 263.707031 351.375 264.285156 350.382812 264.816406 C 349.390625 265.347656 348.375 265.828125 347.335938 266.257812 C 346.292969 266.6875 345.234375 267.066406 344.160156 267.394531 C 343.082031 267.722656 341.992188 267.992188 340.886719 268.214844 C 339.78125 268.433594 338.671875 268.597656 337.550781 268.707031 C 336.429688 268.820312 335.308594 268.875 334.179688 268.875 C 333.054688 268.875 331.933594 268.820312 330.8125 268.707031 C 329.691406 268.597656 328.582031 268.433594 327.476562 268.214844 C 326.371094 267.992188 325.28125 267.722656 324.203125 267.394531 C 323.125 267.066406 322.066406 266.6875 321.027344 266.257812 C 319.988281 265.828125 318.972656 265.347656 317.980469 264.816406 C 316.984375 264.285156 316.023438 263.707031 315.085938 263.082031 C 314.148438 262.457031 313.246094 261.785156 312.375 261.070312 C 311.507812 260.359375 310.671875 259.601562 309.878906 258.808594 C 309.082031 258.011719 308.328125 257.179688 307.613281 256.308594 C 306.898438 255.4375 306.226562 254.535156 305.601562 253.597656 C 304.976562 252.664062 304.398438 251.699219 303.867188 250.707031 C 303.339844 249.710938 302.859375 248.695312 302.425781 247.65625 C 301.996094 246.617188 301.617188 245.558594 301.289062 244.480469 C 300.964844 243.402344 300.691406 242.3125 300.472656 241.207031 C 300.25 240.105469 300.085938 238.992188 299.976562 237.871094 C 299.867188 236.75 299.808594 235.628906 299.808594 234.503906 C 299.808594 233.378906 299.867188 232.253906 299.976562 231.132812 C 300.085938 230.015625 300.25 228.902344 300.472656 227.796875 C 300.691406 226.695312 300.964844 225.601562 301.289062 224.527344 C 301.617188 223.449219 301.996094 222.390625 302.425781 221.351562 C 302.859375 220.308594 303.339844 219.292969 303.867188 218.300781 C 304.398438 217.308594 304.976562 216.34375 305.601562 215.40625 C 306.226562 214.472656 306.898438 213.570312 307.613281 212.699219 C 308.328125 211.828125 309.082031 210.996094 309.878906 210.199219 C 310.671875 209.402344 311.507812 208.648438 312.375 207.933594 C 313.246094 207.21875 314.148438 206.550781 315.085938 205.925781 C 316.023438 205.300781 316.984375 204.722656 317.980469 204.191406 C 318.972656 203.660156 319.988281 203.179688 321.027344 202.75 C 322.066406 202.316406 323.125 201.9375 324.203125 201.613281 C 325.28125 201.285156 326.371094 201.011719 327.476562 200.792969 C 328.582031 200.574219 329.691406 200.40625 330.8125 200.296875 C 331.933594 200.1875 333.054688 200.132812 334.179688 200.132812 C 335.308594 200.132812 336.429688 200.1875 337.550781 200.296875 C 338.671875 200.40625 339.78125 200.574219 340.886719 200.792969 C 341.992188 201.011719 343.082031 201.285156 344.160156 201.613281 C 345.234375 201.9375 346.292969 202.316406 347.335938 202.75 C 348.375 203.179688 349.390625 203.660156 350.382812 204.191406 C 351.375 204.722656 352.339844 205.300781 353.277344 205.925781 C 354.214844 206.550781 355.117188 207.21875 355.984375 207.933594 C 356.855469 208.648438 357.691406 209.402344 358.484375 210.199219 C 359.28125 210.996094 360.035156 211.828125 360.75 212.699219 C 361.464844 213.570312 362.132812 214.472656 362.761719 215.40625 C 363.386719 216.34375 363.964844 217.308594 364.492188 218.300781 C 365.023438 219.292969 365.503906 220.308594 365.9375 221.351562 C 366.367188 222.390625 366.746094 223.449219 367.074219 224.527344 C 367.398438 225.601562 367.671875 226.695312 367.890625 227.796875 C 368.113281 228.902344 368.277344 230.015625 368.386719 231.132812 C 368.496094 232.253906 368.550781 233.378906 368.550781 234.503906 Z M 368.550781 234.503906 " fill-opacity="1" fill-rule="nonzero"/></g><path fill="#ffffff" d="M 316.996094 264.304688 C 327.269531 258.359375 334.179688 247.253906 334.179688 234.53125 C 334.179688 221.808594 327.269531 210.699219 316.996094 204.757812 C 306.722656 210.699219 299.808594 221.808594 299.808594 234.53125 C 299.808594 247.253906 306.722656 258.359375 316.996094 264.304688 Z M 316.996094 264.304688 " fill-opacity="1" fill-rule="evenodd"/></svg>